<?xml version="1.0" encoding="UTF-8"?>
<svg width="94px" height="15px" viewBox="0 0 94 15" version="1.1" xmlns="http://www.w3.org/2000/svg" xmlns:xlink="http://www.w3.org/1999/xlink">
    <!-- Generator: Sketch 43.2 (39069) - http://www.bohemiancoding.com/sketch -->
    <title>Group 2</title>
    <desc>Created with Sketch.</desc>
    <defs></defs>
    <g id="Page-1" stroke="none" stroke-width="1" fill="none" fill-rule="evenodd">
        <g id="Group-2" transform="translate(2.000000, 1.000000)">
            <g id="Group" transform="translate(16.000000, 0.000000)" fill="#595959">
                <path d="M0,8.22135417 L0,6.76041667 C0,6.00607262 0.251057076,5.35916068 0.753178758,4.81966146 C1.25530044,4.28016223 1.85215311,4.01041667 2.54375467,4.01041667 C2.97008441,4.01041667 3.34430156,4.11545034 3.66641735,4.32552083 C3.98853315,4.53559133 4.2348533,4.79340125 4.40538519,5.09895833 L4.40538519,0.415364583 C4.40538519,0.291232018 4.4622283,0.190972604 4.57591623,0.114583333 C4.68960416,0.0381940625 4.83171194,0 5.00224383,0 C5.17277572,0 5.31251504,0.0381940625 5.42146597,0.114583333 C5.5304169,0.190972604 5.58489155,0.291232018 5.58489155,0.415364583 L5.58489155,10.4557292 C5.58489155,10.5703131 5.52804844,10.6705725 5.41436051,10.7565104 C5.30067258,10.8424483 5.16330173,10.8854167 5.00224383,10.8854167 C4.86013392,10.8854167 4.73460538,10.8424483 4.62565445,10.7565104 C4.51670352,10.6705725 4.46222887,10.5703131 4.46222887,10.4557292 L4.46222887,9.8828125 C4.30117097,10.1883696 4.04064004,10.4509538 3.68062827,10.6705729 C3.3206165,10.8901921 2.92745165,11 2.50112191,11 C1.83794233,11 1.25530044,10.7183188 0.753178758,10.1549479 C0.251057076,9.59157704 0,8.94705224 0,8.22135417 Z M1.17950636,8.22135417 C1.17950636,8.66059247 1.34056184,9.05446874 1.66267764,9.40299479 C1.98479343,9.75152084 2.35901058,9.92578125 2.78534031,9.92578125 C3.20219605,9.92578125 3.5764132,9.76584361 3.90800299,9.44596354 C4.23959278,9.12608347 4.40538519,8.84678939 4.40538519,8.60807292 L4.40538519,6.76041667 C4.40538519,6.26388641 4.24432971,5.86046162 3.92221391,5.55013021 C3.60009812,5.2397988 3.22588096,5.08463542 2.79955123,5.08463542 C2.36374751,5.08463542 1.98479343,5.2565087 1.66267764,5.60026042 C1.34056184,5.94401214 1.17950636,6.33072702 1.17950636,6.76041667 L1.17950636,8.22135417 Z M7.02019447,8.22135417 L7.02019447,6.71744792 C7.02019447,5.98220118 7.29730463,5.3472249 7.85153328,4.8125 C8.40576193,4.2777751 9.07130003,4.01041667 9.84816754,4.01041667 C10.5871391,4.01041667 11.2266241,4.2610652 11.7666417,4.76236979 C12.3066594,5.26367438 12.5766642,5.89148928 12.5766642,6.64583333 C12.5766642,6.92274444 12.5435057,7.14474743 12.4771877,7.31184896 C12.4108698,7.47895049 12.3090259,7.59830693 12.171653,7.66992188 C12.03428,7.74153682 11.906383,7.78689227 11.7879581,7.80598958 C11.6695332,7.8250869 11.5108462,7.83463542 11.3118923,7.83463542 L8.19970082,7.83463542 L8.19970082,8.26432292 C8.19970082,8.78949915 8.3868094,9.20963384 8.76103216,9.52473958 C9.13525493,9.83984533 9.62078984,9.99739583 10.2176515,9.99739583 C10.5302933,9.99739583 10.8026665,9.94965326 11.0347794,9.85416667 C11.2668922,9.75868008 11.4540008,9.66558205 11.5961107,9.57486979 C11.7382206,9.48415753 11.8519068,9.43880208 11.9371728,9.43880208 C12.0698087,9.43880208 12.1834949,9.49848031 12.2782349,9.61783854 C12.3729748,9.73719678 12.4203441,9.85894035 12.4203441,9.98307292 C12.4203441,10.2026921 12.2048139,10.4270822 11.7737472,10.65625 C11.3426805,10.8854178 10.8097763,11 10.1750187,11 C9.24656728,11 8.48865913,10.7445772 7.9012715,10.233724 C7.31388387,9.72287071 7.02019447,9.05208749 7.02019447,8.22135417 Z M8.19970082,7.03255208 L10.828721,7.03255208 C11.0750449,7.03255208 11.2408373,7.00151941 11.3261032,6.93945312 C11.4113692,6.87738684 11.4540015,6.75564327 11.4540015,6.57421875 C11.4540015,6.1445291 11.2976829,5.76736273 10.9850411,5.44270833 C10.6723993,5.11805393 10.2887083,4.95572917 9.83395662,4.95572917 C9.3886789,4.95572917 9.0049879,5.10611829 8.6828721,5.40690104 C8.36075631,5.7076838 8.19970082,6.07768878 8.19970082,6.51692708 L8.19970082,7.03255208 Z M14.0545999,10.4557292 L14.0545999,1.00260417 C14.0545999,0.611109154 14.2535507,0.415364583 14.6514585,0.415364583 C15.0304182,0.415364583 15.3477923,0.668400247 15.6035901,1.17447917 L17.8347046,5.48567708 L20.0800299,1.17447917 C20.3547757,0.668400247 20.6721498,0.415364583 21.0321616,0.415364583 C21.4300693,0.415364583 21.6290202,0.611109154 21.6290202,1.00260417 L21.6290202,10.4557292 C21.6290202,10.5894104 21.5698086,10.6944441 21.4513837,10.7708333 C21.3329588,10.8472226 21.1932195,10.8854167 21.0321616,10.8854167 C20.8711037,10.8854167 20.7313643,10.8472226 20.6129394,10.7708333 C20.4945145,10.6944441 20.4353029,10.5894104 20.4353029,10.4557292 L20.4353029,2.93619792 L18.289454,7.00390625 C18.1757661,7.2235254 18.0194475,7.33333333 17.8204936,7.33333333 C17.6404878,7.33333333 17.4936431,7.2235254 17.3799551,7.00390625 L15.2483171,2.87890625 L15.2483171,10.4557292 C15.2483171,10.5894104 15.1891056,10.6944441 15.0706806,10.7708333 C14.9522557,10.8472226 14.8125164,10.8854167 14.6514585,10.8854167 C14.4904006,10.8854167 14.3506613,10.8472226 14.2322364,10.7708333 C14.1138114,10.6944441 14.0545999,10.5894104 14.0545999,10.4557292 Z M23.3201197,1.546875 C23.3201197,1.36545048 23.3911736,1.20789997 23.5332835,1.07421875 C23.6753934,0.940537526 23.8506596,0.873697917 24.0590875,0.873697917 C24.2580414,0.873697917 24.4285707,0.940537526 24.5706806,1.07421875 C24.7127905,1.20789997 24.7838444,1.36545048 24.7838444,1.546875 C24.7838444,1.72829952 24.7127905,1.88823715 24.5706806,2.02669271 C24.4285707,2.16514826 24.2580414,2.234375 24.0590875,2.234375 C23.8601336,2.234375 23.6872358,2.16514826 23.5403889,2.02669271 C23.393542,1.88823715 23.3201197,1.72829952 23.3201197,1.546875 Z M23.4764398,10.4557292 L23.4764398,4.51171875 C23.4764398,4.38758618 23.5332829,4.28732677 23.6469708,4.2109375 C23.7606588,4.13454823 23.8980296,4.09635417 24.0590875,4.09635417 C24.2296194,4.09635417 24.3717272,4.13454823 24.4854151,4.2109375 C24.599103,4.28732677 24.6559461,4.38758618 24.6559461,4.51171875 L24.6559461,10.4557292 C24.6559461,10.5607644 24.5967346,10.6586367 24.4783096,10.749349 C24.3598847,10.8400612 24.2201454,10.8854167 24.0590875,10.8854167 C23.8980296,10.8854167 23.7606588,10.8424483 23.6469708,10.7565104 C23.5332829,10.6705725 23.4764398,10.5703131 23.4764398,10.4557292 Z M26.0912491,8.22135417 L26.0912491,6.7890625 C26.0912491,5.96787784 26.3304638,5.29948174 26.8089005,4.78385417 C27.2873372,4.26822659 27.9907707,4.01041667 28.9192221,4.01041667 C29.5066098,4.01041667 30.0016185,4.11545034 30.4042633,4.32552083 C30.806908,4.53559133 31.0082274,4.75998145 31.0082274,4.99869792 C31.0082274,5.13237914 30.9584897,5.26367123 30.8590127,5.39257813 C30.7595358,5.52148502 30.6434811,5.5859375 30.5108452,5.5859375 C30.4729492,5.5859375 30.3095253,5.50238799 30.0205684,5.33528646 C29.7316116,5.16818493 29.3929214,5.08463542 29.0044877,5.08463542 C28.436048,5.08463542 28.0049878,5.23263741 27.7112939,5.52864583 C27.4176001,5.82465426 27.2707554,6.24478895 27.2707554,6.7890625 L27.2707554,8.22135417 C27.2707554,9.35764457 27.8533973,9.92578125 29.0186986,9.92578125 C29.4166063,9.92578125 29.7624019,9.83984461 30.0560957,9.66796875 C30.3497896,9.49609289 30.5203189,9.41015625 30.5676889,9.41015625 C30.7192728,9.41015625 30.8448013,9.4722216 30.9442782,9.59635417 C31.0437552,9.72048673 31.0934929,9.84939169 31.0934929,9.98307292 C31.0934929,10.2217894 30.8850682,10.4509538 30.4682124,10.6705729 C30.0513567,10.8901921 29.5397687,11 28.9334331,11 C27.9955077,11 27.2873372,10.7445772 26.8089005,10.233724 C26.3304638,9.72287071 26.0912491,9.05208749 26.0912491,8.22135417 Z M31.8182498,9.09505208 C31.8182498,8.35025669 32.1024654,7.83224972 32.670905,7.54101562 C33.2393447,7.24978153 34.0635698,7.10416667 35.1436051,7.10416667 L35.8257292,7.10416667 L35.8257292,6.80338542 C35.8257292,6.32595247 35.6954638,5.91059204 35.4349289,5.55729167 C35.1743941,5.20399129 34.7835977,5.02734375 34.262528,5.02734375 C33.8646203,5.02734375 33.5140878,5.09657049 33.21092,5.23502604 C32.9077522,5.3734816 32.7419598,5.44270833 32.7135378,5.44270833 C32.5809019,5.44270833 32.474321,5.37825585 32.3937921,5.24934896 C32.3132631,5.12044206 32.2729993,4.98437572 32.2729993,4.84114583 C32.2729993,4.62152668 32.4885294,4.42816924 32.9195961,4.26106771 C33.3506628,4.09396618 33.8077762,4.01041667 34.2909499,4.01041667 C35.2194013,4.01041667 35.9038871,4.27538798 36.3444278,4.80533854 C36.7849685,5.33528911 37.0052356,5.99652382 37.0052356,6.7890625 L37.0052356,10.4557292 C37.0052356,10.5798617 36.950761,10.6825083 36.84181,10.7636719 C36.7328591,10.8448355 36.5931198,10.8854167 36.4225879,10.8854167 C36.271004,10.8854167 36.143107,10.8448355 36.038893,10.7636719 C35.9346791,10.6825083 35.8825729,10.5798617 35.8825729,10.4557292 L35.8825729,9.8828125 C35.2383413,10.6276079 34.5230655,11 33.736724,11 C33.1682844,11 32.7064341,10.8376752 32.3511593,10.5130208 C31.9958845,10.1883664 31.8182498,9.71571491 31.8182498,9.09505208 Z M33.0119671,8.96614583 C33.0119671,9.31944621 33.1114425,9.58680465 33.3103964,9.76822917 C33.5093503,9.94965368 33.7746181,10.0403646 34.1062079,10.0403646 C34.5041157,10.0403646 34.8901751,9.88042695 35.2643979,9.56054687 C35.6386207,9.2406668 35.8257292,8.91363014 35.8257292,8.57942708 L35.8257292,7.83463542 L35.328347,7.83463542 C35.0536012,7.83463542 34.8167549,7.8417968 34.617801,7.85611979 C34.4188472,7.87044278 34.2127909,7.89908833 33.999626,7.94205729 C33.7864612,7.98502626 33.6111949,8.04709161 33.473822,8.12825521 C33.3364491,8.20941881 33.2251313,8.31922674 33.1398654,8.45768229 C33.0545994,8.59613785 33.0119671,8.765624 33.0119671,8.96614583 Z M38.6963351,10.4557292 L38.6963351,0.845052083 C38.6963351,0.711370859 38.7508097,0.606337187 38.8597607,0.529947917 C38.9687116,0.453558646 39.0942401,0.415364583 39.23635,0.415364583 L44.2954375,0.415364583 C44.4280735,0.415364583 44.5299174,0.467881419 44.6009723,0.572916667 C44.6720273,0.677951914 44.7075542,0.802082617 44.7075542,0.9453125 C44.7075542,1.09809104 44.6696588,1.22938313 44.5938669,1.33919271 C44.5180749,1.44900229 44.4185995,1.50390625 44.2954375,1.50390625 L39.8900524,1.50390625 L39.8900524,5.14192708 L42.1069559,5.14192708 C42.2301178,5.14192708 42.3295932,5.19205679 42.4053852,5.29231771 C42.4811771,5.39257863 42.5190726,5.5143222 42.5190726,5.65755208 C42.5190726,5.78168465 42.4835456,5.89387971 42.4124907,5.99414063 C42.3414357,6.09440154 42.2395918,6.14453125 42.1069559,6.14453125 L39.8900524,6.14453125 L39.8900524,9.796875 L44.2954375,9.796875 C44.4185995,9.796875 44.5180749,9.85177896 44.5938669,9.96158854 C44.6696588,10.0713981 44.7075542,10.2026902 44.7075542,10.3554688 C44.7075542,10.4986986 44.6720273,10.6228293 44.6009723,10.7278646 C44.5299174,10.8328998 44.4280735,10.8854167 44.2954375,10.8854167 L39.23635,10.8854167 C39.0942401,10.8854167 38.9687116,10.8472226 38.8597607,10.7708333 C38.7508097,10.6944441 38.6963351,10.5894104 38.6963351,10.4557292 Z M45.8302169,10.4557292 L45.8302169,4.51171875 C45.8302169,4.38758618 45.8846916,4.28732677 45.9936425,4.2109375 C46.1025934,4.13454823 46.2423327,4.09635417 46.4128646,4.09635417 C46.5549745,4.09635417 46.6805031,4.13693536 46.789454,4.21809896 C46.8984049,4.29926256 46.9528796,4.39713484 46.9528796,4.51171875 L46.9528796,5.09895833 C47.1044635,4.79340125 47.3484152,4.53559133 47.684742,4.32552083 C48.0210687,4.11545034 48.4118651,4.01041667 48.8571429,4.01041667 C49.5297964,4.01041667 50.1148068,4.28016223 50.6121915,4.81966146 C51.1095762,5.35916068 51.3582648,6.00607262 51.3582648,6.76041667 L51.3582648,10.4557292 C51.3582648,10.5894104 51.2990532,10.6944441 51.1806283,10.7708333 C51.0622033,10.8472226 50.922464,10.8854167 50.7614061,10.8854167 C50.6098222,10.8854167 50.4748198,10.8472226 50.3563949,10.7708333 C50.23797,10.6944441 50.1787584,10.5894104 50.1787584,10.4557292 L50.1787584,6.76041667 C50.1787584,6.33072702 50.0177029,5.94401214 49.6955871,5.60026042 C49.3734713,5.2565087 48.9945173,5.08463542 48.5587135,5.08463542 C48.1513318,5.08463542 47.7913254,5.2397988 47.4786836,5.55013021 C47.1660418,5.86046162 47.0097233,6.26388641 47.0097233,6.76041667 L47.0097233,10.4557292 C47.0097233,10.5607644 46.9481432,10.6586367 46.8249813,10.749349 C46.7018194,10.8400612 46.5644485,10.8854167 46.4128646,10.8854167 C46.2518067,10.8854167 46.1144359,10.8424483 46.0007479,10.7565104 C45.88706,10.6705725 45.8302169,10.5703131 45.8302169,10.4557292 Z M53.0493642,10.4557292 L53.0493642,1.00260417 C53.0493642,0.611109154 53.2483151,0.415364583 53.6462229,0.415364583 C54.0251826,0.415364583 54.3425567,0.668400247 54.5983545,1.17447917 L56.829469,5.48567708 L59.0747943,1.17447917 C59.3495401,0.668400247 59.6669142,0.415364583 60.026926,0.415364583 C60.4248337,0.415364583 60.6237846,0.611109154 60.6237846,1.00260417 L60.6237846,10.4557292 C60.6237846,10.5894104 60.564573,10.6944441 60.4461481,10.7708333 C60.3277232,10.8472226 60.1879839,10.8854167 60.026926,10.8854167 C59.8658681,10.8854167 59.7261287,10.8472226 59.6077038,10.7708333 C59.4892789,10.6944441 59.4300673,10.5894104 59.4300673,10.4557292 L59.4300673,2.93619792 L57.2842184,7.00390625 C57.1705305,7.2235254 57.0142119,7.33333333 56.815258,7.33333333 C56.6352522,7.33333333 56.4884074,7.2235254 56.3747195,7.00390625 L54.2430815,2.87890625 L54.2430815,10.4557292 C54.2430815,10.5894104 54.18387,10.6944441 54.065445,10.7708333 C53.9470201,10.8472226 53.8072808,10.8854167 53.6462229,10.8854167 C53.485165,10.8854167 53.3454257,10.8472226 53.2270007,10.7708333 C53.1085758,10.6944441 53.0493642,10.5894104 53.0493642,10.4557292 Z M62.3148841,1.546875 C62.3148841,1.36545048 62.385938,1.20789997 62.5280479,1.07421875 C62.6701578,0.940537526 62.845424,0.873697917 63.0538519,0.873697917 C63.2528058,0.873697917 63.4233351,0.940537526 63.565445,1.07421875 C63.7075549,1.20789997 63.7786088,1.36545048 63.7786088,1.546875 C63.7786088,1.72829952 63.7075549,1.88823715 63.565445,2.02669271 C63.4233351,2.16514826 63.2528058,2.234375 63.0538519,2.234375 C62.854898,2.234375 62.6820002,2.16514826 62.5351533,2.02669271 C62.3883064,1.88823715 62.3148841,1.72829952 62.3148841,1.546875 Z M62.4712042,10.4557292 L62.4712042,4.51171875 C62.4712042,4.38758618 62.5280473,4.28732677 62.6417352,4.2109375 C62.7554232,4.13454823 62.892794,4.09635417 63.0538519,4.09635417 C63.2243838,4.09635417 63.3664916,4.13454823 63.4801795,4.2109375 C63.5938674,4.28732677 63.6507105,4.38758618 63.6507105,4.51171875 L63.6507105,10.4557292 C63.6507105,10.5607644 63.591499,10.6586367 63.473074,10.749349 C63.3546491,10.8400612 63.2149098,10.8854167 63.0538519,10.8854167 C62.892794,10.8854167 62.7554232,10.8424483 62.6417352,10.7565104 C62.5280473,10.6705725 62.4712042,10.5703131 62.4712042,10.4557292 Z M65.0860135,8.22135417 L65.0860135,6.7890625 C65.0860135,5.96787784 65.3252282,5.29948174 65.8036649,4.78385417 C66.2821016,4.26822659 66.9855351,4.01041667 67.9139865,4.01041667 C68.5013742,4.01041667 68.9963829,4.11545034 69.3990277,4.32552083 C69.8016724,4.53559133 70.0029918,4.75998145 70.0029918,4.99869792 C70.0029918,5.13237914 69.9532541,5.26367123 69.8537771,5.39257813 C69.7543002,5.52148502 69.6382455,5.5859375 69.5056096,5.5859375 C69.4677136,5.5859375 69.3042897,5.50238799 69.0153328,5.33528646 C68.726376,5.16818493 68.3876858,5.08463542 67.9992521,5.08463542 C67.4308124,5.08463542 66.9997522,5.23263741 66.7060583,5.52864583 C66.4123645,5.82465426 66.2655198,6.24478895 66.2655198,6.7890625 L66.2655198,8.22135417 C66.2655198,9.35764457 66.8481617,9.92578125 68.013463,9.92578125 C68.4113707,9.92578125 68.7571663,9.83984461 69.0508601,9.66796875 C69.3445539,9.49609289 69.5150833,9.41015625 69.5624533,9.41015625 C69.7140372,9.41015625 69.8395657,9.4722216 69.9390426,9.59635417 C70.0385196,9.72048673 70.0882573,9.84939169 70.0882573,9.98307292 C70.0882573,10.2217894 69.8798326,10.4509538 69.4629768,10.6705729 C69.0461211,10.8901921 68.5345331,11 67.9281975,11 C66.990272,11 66.2821016,10.7445772 65.8036649,10.233724 C65.3252282,9.72287071 65.0860135,9.05208749 65.0860135,8.22135417 Z M70.8130142,9.09505208 C70.8130142,8.35025669 71.0972298,7.83224972 71.6656694,7.54101562 C72.2341091,7.24978153 73.0583342,7.10416667 74.1383695,7.10416667 L74.8204936,7.10416667 L74.8204936,6.80338542 C74.8204936,6.32595247 74.6902282,5.91059204 74.4296933,5.55729167 C74.1691585,5.20399129 73.7783621,5.02734375 73.2572924,5.02734375 C72.8593847,5.02734375 72.5088522,5.09657049 72.2056844,5.23502604 C71.9025166,5.3734816 71.7367242,5.44270833 71.7083022,5.44270833 C71.5756663,5.44270833 71.4690854,5.37825585 71.3885565,5.24934896 C71.3080275,5.12044206 71.2677636,4.98437572 71.2677636,4.84114583 C71.2677636,4.62152668 71.4832938,4.42816924 71.9143605,4.26106771 C72.3454272,4.09396618 72.8025406,4.01041667 73.2857143,4.01041667 C74.2141657,4.01041667 74.8986515,4.27538798 75.3391922,4.80533854 C75.7797329,5.33528911 76,5.99652382 76,6.7890625 L76,10.4557292 C76,10.5798617 75.9455254,10.6825083 75.8365744,10.7636719 C75.7276235,10.8448355 75.5878842,10.8854167 75.4173523,10.8854167 C75.2657684,10.8854167 75.1378714,10.8448355 75.0336574,10.7636719 C74.9294435,10.6825083 74.8773373,10.5798617 74.8773373,10.4557292 L74.8773373,9.8828125 C74.2331057,10.6276079 73.5178299,11 72.7314884,11 C72.1630488,11 71.7011985,10.8376752 71.3459237,10.5130208 C70.9906489,10.1883664 70.8130142,9.71571491 70.8130142,9.09505208 Z M72.0067315,8.96614583 C72.0067315,9.31944621 72.1062069,9.58680465 72.3051608,9.76822917 C72.5041147,9.94965368 72.7693825,10.0403646 73.1009723,10.0403646 C73.4988801,10.0403646 73.8849395,9.88042695 74.2591623,9.56054687 C74.6333851,9.2406668 74.8204936,8.91363014 74.8204936,8.57942708 L74.8204936,7.83463542 L74.3231114,7.83463542 C74.0483656,7.83463542 73.8115193,7.8417968 73.6125654,7.85611979 C73.4136116,7.87044278 73.2075553,7.89908833 72.9943904,7.94205729 C72.7812256,7.98502626 72.6059593,8.04709161 72.4685864,8.12825521 C72.3312135,8.20941881 72.2198957,8.31922674 72.1346298,8.45768229 C72.0493638,8.59613785 72.0067315,8.765624 72.0067315,8.96614583 Z" id="deMicaEnMica"></path>
            </g>
            <g id="food-24px-outline_bread" transform="translate(0.000000, 1.000000)" stroke="#FD7575" stroke-width="2" stroke-linecap="square">
                <path d="M5,4 L6,5" id="Shape"></path>
                <path d="M8,10 L7,11" id="Shape"></path>
                <path d="M9,1 L9,0" id="Shape"></path>
                <path d="M0,1 L1,0" id="Shape"></path>
                <path d="M2,10 L2,9" id="Shape"></path>
            </g>
        </g>
    </g>
</svg>